<?xml version="1.0" encoding="UTF-8" standalone="no"?>
<svg
   xmlns:dc="http://purl.org/dc/elements/1.1/"
   xmlns:cc="http://creativecommons.org/ns#"
   xmlns:rdf="http://www.w3.org/1999/02/22-rdf-syntax-ns#"
   xmlns:svg="http://www.w3.org/2000/svg"
   xmlns="http://www.w3.org/2000/svg"
   xmlns:sodipodi="http://sodipodi.sourceforge.net/DTD/sodipodi-0.dtd"
   xmlns:inkscape="http://www.inkscape.org/namespaces/inkscape"
   version="1.1"
   id="svg2"
   xml:space="preserve"
   width="1600"
   height="1600"
   viewBox="0 0 1600 1600"
   sodipodi:docname="eye-1915455.ai"><metadata
     id="metadata8"><rdf:RDF><cc:Work
         rdf:about=""><dc:format>image/svg+xml</dc:format><dc:type
           rdf:resource="http://purl.org/dc/dcmitype/StillImage" /></cc:Work></rdf:RDF></metadata><defs
     id="defs6"><clipPath
       clipPathUnits="userSpaceOnUse"
       id="clipPath18"><path
         d="M 0,1200 H 1200 V 0 H 0 Z"
         id="path16" /></clipPath></defs><sodipodi:namedview
     pagecolor="#ffffff"
     bordercolor="#666666"
     borderopacity="1"
     objecttolerance="10"
     gridtolerance="10"
     guidetolerance="10"
     inkscape:pageopacity="0"
     inkscape:pageshadow="2"
     inkscape:window-width="640"
     inkscape:window-height="480"
     id="namedview4" /><g
     id="g10"
     inkscape:groupmode="layer"
     inkscape:label="eye-1915455"
     transform="matrix(1.3333333,0,0,-1.3333333,0,1600)"><g
       id="g12"><g
         id="g14"
         clip-path="url(#clipPath18)"><g
           id="g20"
           transform="translate(605.041,365.6214)"><path
             d="m 0,0 c -124.59,0 -225.589,97.701 -225.589,218.221 0,120.519 100.999,218.22 225.589,218.22 124.59,0 225.591,-97.701 225.591,-218.22 C 225.591,97.701 124.59,0 0,0 m -514.041,217.383 c 569.238,-589.51 1017.932,0 1017.932,0 -495.572,595.99 -1017.932,0 -1017.932,0"
             style="fill:#9873FF;fill-opacity:1;fill-rule:nonzero;stroke:none"
             id="path22" /></g><g
           id="g24"
           transform="translate(607.0029,705.2302)"><path
             d="m 0,0 c -69.661,0 -126.134,-55.08 -126.134,-123.025 0,-67.944 56.473,-123.024 126.134,-123.024 69.662,0 126.134,55.08 126.134,123.024 C 126.134,-55.08 69.662,0 0,0"
             style="fill:#9873FF;fill-opacity:1;fill-rule:nonzero;stroke:none"
             id="path26" /></g></g></g></g></svg>
